PathFileType	4	(X/Y/Z)	/Users/visionmauri/1_7_1_f_Sports2D/1_7_1_f_Sports2D_px_person00.trc
DataRate	CameraRate	NumFrames	NumMarkers	Units	OrigDataRate	OrigDataStartFrame	OrigNumFrames
30.0	30.0	5	22	m	30.0	145	389
Frame#	Time	Hip			RHip			RKnee			RAnkle			RBigToe			RSmallToe			RHeel			LHip			LKnee			LAnkle			LBigToe			LSmallToe			LHeel			Neck			Head			Nose			RShoulder			RElbow			RWrist			LShoulder			LElbow			LWrist			
		X1	Y1	Z1	X2	Y2	Z2	X3	Y3	Z3	X4	Y4	Z4	X5	Y5	Z5	X6	Y6	Z6	X7	Y7	Z7	X8	Y8	Z8	X9	Y9	Z9	X10	Y10	Z10	X11	Y11	Z11	X12	Y12	Z12	X13	Y13	Z13	X14	Y14	Z14	X15	Y15	Z15	X16	Y16	Z16	X17	Y17	Z17	X18	Y18	Z18	X19	Y19	Z19	X20	Y20	Z20	X21	Y21	Z21	X22	Y22	Z22
145	4.845790378006873	637.5549021702188	856.269657242135	0.0	690.2970362390308	855.1080877997862	0.0	696.7928683544701	1071.1425764718113	0.0	703.763491199869	1255.901132149548	0.0	688.0689368245863	1307.3878293200469	0.0	725.162126126723	1308.1054700974016	0.0	700.675167676948	1291.9628362918586	0.0	587.9989863075566	862.4905523762337	0.0	588.1820428397099	1050.6437502454214	0.0	604.1193465876138	1252.5374493473646	0.0	613.8850688910683	1304.2922731748038	0.0	579.1265265756127	1304.3077491397933	0.0	606.9281360014336	1290.5796541342256	0.0	606.7403857684703	603.9135517353777	0.0	563.2254329159847	512.5657868406696	0.0	568.5374998810462	568.0495637627251	0.0	704.6581729929884	608.1876753936759	0.0	785.4219233714665	723.0939868132266	0.0	792.9448245105049	831.9605164991536	0.0	520.3692220411357	634.5500126268477	0.0	492.1492906570698	774.6262080240269	0.0	492.8456287023871	792.1914755231358	0.0
146	4.879209621993127	639.242439007871	856.7805888461842	0.0	691.9784039445204	855.1560142125843	0.0	696.7893333319672	1071.168791613471	0.0	709.9642749167132	1257.945992467084	0.0	693.1751123302739	1297.4351695201494	0.0	732.7421227064121	1301.629305381506	0.0	709.1767339952347	1293.5102554501445	0.0	590.223956164931	861.6845073243061	0.0	590.4689534532321	1051.4475191628987	0.0	605.6244270442014	1251.5828743721197	0.0	615.0660524238717	1304.2680893137103	0.0	581.4184992042716	1302.5184766412517	0.0	608.0991735483158	1291.0704765595085	0.0	608.4023089712058	603.3982224925102	0.0	560.7341889205935	513.3945024207519	0.0	567.1439820053438	572.5349368850016	0.0	705.1422777529383	607.6478983461961	0.0	789.3374332101924	721.904486021945	0.0	792.9757795936677	826.7949406906561	0.0	523.3430004556709	634.299169408634	0.0	496.2404511132589	773.9483847242208	0.0	494.9516746340415	790.9580329107897	0.0
147	4.912628865979381	640.9720093053863	856.6703711801341	0.0	693.6092165950756	855.9268243056952	0.0	696.9866501821334	1071.347394678552	0.0	714.9145598356606	1258.2315517469754	0.0	693.2664031342797	1289.5681898611601	0.0	736.9224879717885	1296.9456158231055	0.0	715.2060951951128	1292.7079041843554	0.0	592.5317119813549	860.8255457315576	0.0	592.525812777552	1050.0843915432051	0.0	607.5809588084385	1252.5612335829724	0.0	612.6166273956208	1300.6334641137098	0.0	581.8434948583223	1300.9373158728456	0.0	610.521136493303	1291.11215699889	0.0	610.3498211385784	602.9530134582656	0.0	556.2928178476781	515.1397196318259	0.0	563.8526617108053	579.8934489640218	0.0	706.2885472364825	607.0697306794627	0.0	792.0146099826724	721.1311225661286	0.0	791.9406763321687	822.2240527931484	0.0	527.3469649468369	632.8233476436208	0.0	500.1768943312616	773.5787305651853	0.0	498.6152334229999	788.2257905981902	0.0
148	4.946048109965636	643.2780833017844	856.0355252473479	0.0	695.7384384035493	856.5269543487042	0.0	697.4803418768357	1071.3503783768517	0.0	717.5846897241228	1258.0653536663365	0.0	687.7150592317862	1284.027523046092	0.0	735.0282358410282	1292.324264299514	0.0	718.5814914173743	1291.06694445888	0.0	595.3945445938002	860.0406447747309	0.0	593.9215273555388	1049.202278440606	0.0	609.5684106299542	1252.8472653113527	0.0	610.2250471113584	1298.3072610044521	0.0	582.3062757838043	1300.0179047247998	0.0	613.0268210485611	1289.7629058123064	0.0	612.8603484393462	602.8603580659139	0.0	552.813284878891	517.3903644202213	0.0	560.6323542343705	586.5215650133348	0.0	708.0612573236835	607.0907363715188	0.0	793.6867233503119	720.0729986447063	0.0	789.0569197302221	818.460478909064	0.0	532.1955426385707	630.8109744393606	0.0	504.0223685285259	773.6001023088263	0.0	503.4762349323179	784.621270336158	0.0
149	4.97946735395189	646.351347401193	855.3395276408819	0.0	698.7940962387307	856.5693301898251	0.0	698.0630906813108	1071.14363203814	0.0	718.1677341077692	1257.909606037492	0.0	682.0849162098349	1280.984897825536	0.0	730.2312625197051	1287.1088592813983	0.0	719.9703503284076	1289.2383394155606	0.0	599.1585938411912	859.4964520167504	0.0	595.1838986723582	1049.3216726529997	0.0	610.9355201495674	1252.1613994285724	0.0	610.0076124675924	1296.3795459164712	0.0	583.9959648683604	1299.676300519797	0.0	614.6882174197351	1288.4945254971708	0.0	616.0866640253047	603.1272437293734	0.0	552.3076788123705	519.5826779139188	0.0	559.957501690789	590.0378250310985	0.0	710.9904833477839	608.2043975007829	0.0	795.077202653563	720.0804776877991	0.0	784.7013939966142	816.6819936374005	0.0	537.8466774963908	629.7728377667289	0.0	508.96847632118363	773.9878132201801	0.0	508.89324874446237	781.3365396939508	0.0
